<svg xmlns="http://www.w3.org/2000/svg" width="20" height="20" viewBox="0 0 20 20">
    <g fill="#FFECCC" fill-rule="nonzero">
        <path d="M10 0C4.486 0 0 4.486 0 10s4.486 10 10 10 10-4.486 10-10S15.514 0 10 0zm0 19.333C4.854 19.333.667 15.146.667 10S4.854.667 10 .667 19.333 4.854 19.333 10 15.146 19.333 10 19.333z"/>
        <path d="M10.063 8.519V5.316A.314.314 0 0 0 9.75 5a.314.314 0 0 0-.313.316v3.203c-.437.114-.779.46-.893.902H6.312A.314.314 0 0 0 6 9.737c0 .174.14.316.313.316h2.231c.14.543.625.947 1.206.947.69 0 1.25-.567 1.25-1.263 0-.587-.4-1.077-.938-1.218zm-.313 1.85a.629.629 0 0 1-.625-.632c0-.348.28-.632.625-.632s.625.284.625.632c0 .348-.28.631-.625.631zM10 3.5c.276 0 .5-.149.5-.333v-.334c0-.184-.224-.333-.5-.333s-.5.149-.5.333v.334c0 .184.224.333.5.333zM10 16.5c-.276 0-.5.149-.5.333v.334c0 .184.224.333.5.333s.5-.149.5-.333v-.334c0-.184-.224-.333-.5-.333zM17.167 9.5h-.334c-.184 0-.333.223-.333.5s.15.5.333.5h.334c.184 0 .333-.223.333-.5s-.15-.5-.333-.5zM3.167 9.5h-.334c-.184 0-.333.223-.333.5s.15.5.333.5h.334c.184 0 .333-.223.333-.5s-.15-.5-.333-.5zM15.37 4.608l-.262.261a.37.37 0 1 0 .523.523l.26-.261a.37.37 0 1 0-.522-.523zM4.87 15.108l-.262.261a.37.37 0 1 0 .523.523l.26-.261a.37.37 0 1 0-.522-.523zM15.63 15.108a.369.369 0 1 0-.522.523l.261.26a.368.368 0 0 0 .523 0 .369.369 0 0 0 0-.522l-.261-.26zM5.13 4.608a.369.369 0 1 0-.522.523l.261.26a.368.368 0 0 0 .523 0 .369.369 0 0 0 0-.522l-.261-.26z"/>
    </g>
</svg>
