<svg xmlns="http://www.w3.org/2000/svg" width="35" height="35" viewBox="0 0 35 35">
    <g fill="#FFECCC" fill-rule="nonzero">
        <path d="M17.5 0C7.85 0 0 7.85 0 17.5S7.85 35 17.5 35 35 27.15 35 17.5 27.15 0 17.5 0zm0 33.833c-9.006 0-16.333-7.327-16.333-16.333 0-9.006 7.327-16.333 16.333-16.333 9.006 0 16.333 7.327 16.333 16.333 0 9.006-7.327 16.333-16.333 16.333z"/>
        <path d="M17.61 14.907V9.303a.55.55 0 0 0-.547-.553.55.55 0 0 0-.547.553v5.604a2.196 2.196 0 0 0-1.563 1.58h-3.906a.55.55 0 0 0-.547.552.55.55 0 0 0 .547.553h3.906c.244.95 1.093 1.658 2.11 1.658 1.206 0 2.187-.991 2.187-2.21 0-1.028-.7-1.886-1.64-2.133zm-.547 3.238a1.1 1.1 0 0 1-1.094-1.106 1.1 1.1 0 0 1 1.094-1.105 1.1 1.1 0 0 1 1.093 1.105 1.1 1.1 0 0 1-1.093 1.106zM17.5 6.125c.483 0 .875-.26.875-.583v-.584c0-.322-.392-.583-.875-.583s-.875.26-.875.583v.584c0 .322.392.583.875.583zM17.5 28.875c-.483 0-.875.26-.875.583v.584c0 .322.392.583.875.583s.875-.26.875-.583v-.584c0-.322-.392-.583-.875-.583zM30.042 16.625h-.584c-.322 0-.583.391-.583.875s.261.875.583.875h.584c.322 0 .583-.391.583-.875s-.261-.875-.583-.875zM5.542 16.625h-.584c-.322 0-.583.391-.583.875s.261.875.583.875h.584c.322 0 .583-.391.583-.875s-.261-.875-.583-.875zM26.897 8.064l-.457.457a.646.646 0 1 0 .913.915l.457-.458a.646.646 0 1 0-.913-.914zM8.522 26.44l-.457.456a.646.646 0 1 0 .913.915l.457-.458a.646.646 0 1 0-.913-.914zM27.353 26.44a.646.646 0 1 0-.913.914l.457.457a.645.645 0 0 0 .913 0 .646.646 0 0 0 0-.914l-.457-.457zM8.978 8.065a.646.646 0 1 0-.913.914l.457.457a.645.645 0 0 0 .913 0 .646.646 0 0 0 0-.914l-.457-.457z"/>
    </g>
</svg>
