<svg xmlns="http://www.w3.org/2000/svg" width="60" height="60" viewBox="0 0 60 60">
    <g fill="#FFF" fill-rule="nonzero">
        <path d="M9.37 50.617C6.327 47.575 2.722 46.59.984 48.33c-1.738 1.738-.755 5.342 2.287 8.384 1.337 1.338 2.873 2.34 4.324 2.824.643.214 1.249.32 1.802.32.914 0 1.688-.288 2.257-.857 1.739-1.739.756-5.343-2.286-8.384zm.761 6.86c-.293.292-1.003.3-1.853.016-1.123-.375-2.393-1.214-3.482-2.303-2.326-2.327-2.908-4.714-2.287-5.335.153-.153.41-.233.748-.233 1.039 0 2.83.762 4.588 2.519 2.325 2.326 2.907 4.714 2.286 5.335z"/>
        <path d="M20.802 43.756l-4.573-4.573a1.077 1.077 0 0 0-1.524 0l-9.252 9.252a1.077 1.077 0 1 0 1.524 1.524l8.49-8.489 3.048 3.05-8.489 8.488a1.077 1.077 0 1 0 1.524 1.524l9.251-9.252a1.077 1.077 0 0 0 0-1.524z"/>
        <path d="M28.423 45.281l-13.719-13.72a1.077 1.077 0 0 0-1.524 0l-3.049 3.05a1.078 1.078 0 0 0 0 1.524l13.72 13.719a1.078 1.078 0 0 0 1.524 0l3.048-3.049c.42-.42.42-1.103 0-1.524zm-3.81 2.286L12.418 35.373l1.524-1.524 12.195 12.194-1.524 1.524zM59.403.304a1.07 1.07 0 0 0-.865-.297l-8.256.89a1.076 1.076 0 0 0-.647.309l-20.07 20.068a1.077 1.077 0 1 0 1.524 1.524l19.8-19.8 6.593-.71-.51 6.822-19.244 19.245a1.077 1.077 0 1 0 1.524 1.524L58.78 10.35c.183-.183.293-.424.312-.682l.636-8.511a1.076 1.076 0 0 0-.325-.854z"/>
        <path d="M30.504 37.101a1.077 1.077 0 0 0-1.524 0l-4.368 4.368-6.098-6.096 4.285-4.285a1.077 1.077 0 1 0-1.524-1.524l-5.047 5.047a1.078 1.078 0 0 0 0 1.524l7.622 7.621a1.076 1.076 0 0 0 1.523 0l5.131-5.13a1.078 1.078 0 0 0 0-1.525zM53.445 6.54a1.077 1.077 0 0 0-1.524 0L33.455 25.006a1.077 1.077 0 1 0 1.524 1.524L53.445 8.064c.421-.42.421-1.103 0-1.524z"/>
        <path d="M27.008 32.977a1.077 1.077 0 0 0-1.524 0l-4.682 4.682a1.077 1.077 0 1 0 1.524 1.524l4.682-4.682c.421-.42.421-1.103 0-1.524zM59.002 48.203c-1.738-1.737-5.343-.755-8.385 2.286-1.337 1.338-2.34 2.873-2.824 4.325-.568 1.703-.377 3.144.538 4.06.569.569 1.343.858 2.257.858.554 0 1.16-.106 1.802-.32 1.452-.485 2.988-1.488 4.325-2.825 3.041-3.042 4.025-6.646 2.287-8.384zm-3.812 6.86c-1.09 1.088-2.359 1.928-3.482 2.303-.85.283-1.559.276-1.853-.018-.294-.293-.3-1.003-.017-1.852.374-1.124 1.214-2.393 2.303-3.483 1.757-1.757 3.549-2.518 4.589-2.518.337 0 .595.08.747.232.621.622.04 3.01-2.287 5.335z"/>
        <path d="M54.59 48.365l-9.308-9.308a1.077 1.077 0 0 0-1.524 0l-4.573 4.572a1.078 1.078 0 0 0 0 1.524l9.357 9.357a1.074 1.074 0 0 0 1.524 0c.42-.42.42-1.103 0-1.524l-8.595-8.595 3.05-3.048 8.546 8.546a1.077 1.077 0 1 0 1.524-1.524z"/>
        <path d="M49.855 34.483l-3.049-3.049a1.077 1.077 0 0 0-1.524 0l-13.72 13.72a1.078 1.078 0 0 0 0 1.524l3.05 3.049a1.074 1.074 0 0 0 1.524 0l13.72-13.72a1.078 1.078 0 0 0 0-1.524zM35.374 47.441l-1.525-1.525 12.195-12.194 1.525 1.524-12.195 12.195z"/>
        <path d="M43.758 34.484L10.353 1.078A1.079 1.079 0 0 0 9.67.765L1.16.13A1.08 1.08 0 0 0 .007 1.32l.889 8.257c.026.245.135.473.31.647l24.276 24.277 9.13 9.128a1.074 1.074 0 0 0 1.523 0l7.622-7.621a1.078 1.078 0 0 0 0-1.524zm-8.384 6.859l-8.366-8.366L2.999 8.97l-.71-6.592 6.822.508 32.36 32.36-6.097 6.098z"/>
        <path d="M37.699 35.291L7.983 6.391a1.05 1.05 0 0 0-1.455 0 .981.981 0 0 0 0 1.415l29.715 28.9c.201.196.464.294.728.294.263 0 .526-.098.728-.293a.982.982 0 0 0 0-1.416z"/>
    </g>
</svg>
