<svg xmlns="http://www.w3.org/2000/svg" width="35" height="35" viewBox="0 0 35 35">
    <path fill="#FFECCC" fill-rule="nonzero" d="M35 17.5C35 7.85 27.15 0 17.5 0S0 7.85 0 17.5c0 5.097 2.192 9.69 5.68 12.891l-.016.015.567.479c.037.03.077.056.114.087.302.25.614.487.932.717.104.074.207.149.312.221a17.822 17.822 0 0 0 2.475 1.426l.09.04a17.342 17.342 0 0 0 4.233 1.34l.117.021c.46.08.927.143 1.398.186l.173.013c.47.04.944.064 1.425.064.477 0 .947-.025 1.414-.062l.178-.014c.467-.042.93-.104 1.386-.182l.119-.022a17.342 17.342 0 0 0 4.172-1.308c.049-.022.098-.043.146-.066a17.588 17.588 0 0 0 1.432-.757 17.51 17.51 0 0 0 1.006-.636c.118-.08.233-.165.35-.249.279-.2.553-.408.82-.625.059-.048.122-.09.18-.138l.582-.487-.017-.014C32.788 27.238 35 22.623 35 17.5zm-33.727 0c0-8.948 7.28-16.227 16.227-16.227 8.948 0 16.227 7.28 16.227 16.227 0 4.822-2.116 9.157-5.465 12.131a4.77 4.77 0 0 0-.569-.342l-5.388-2.693a1.41 1.41 0 0 1-.784-1.269v-1.881c.125-.154.257-.329.393-.52a12.968 12.968 0 0 0 1.665-3.26 2.31 2.31 0 0 0 1.326-2.093v-2.256c0-.552-.202-1.087-.564-1.508v-2.97c.033-.33.15-2.194-1.198-3.731C21.97 5.768 20.072 5.09 17.5 5.09c-2.572 0-4.47.678-5.643 2.016-1.348 1.537-1.231 3.401-1.198 3.732v2.97c-.361.42-.564.955-.564 1.507v2.256c0 .7.314 1.354.852 1.795.516 2.02 1.577 3.548 1.969 4.066v1.841c0 .52-.284.997-.74 1.246l-5.032 2.745c-.16.087-.319.19-.478.303-3.309-2.973-5.393-7.281-5.393-12.068zm25.746 13.13c-.222.161-.449.318-.679.467-.105.069-.21.138-.318.204-.3.186-.606.363-.917.529l-.208.106c-.716.367-1.458.683-2.22.94l-.08.027c-.4.132-.803.25-1.212.35l-.004.001c-.412.102-.83.187-1.25.256l-.034.007c-.395.064-.794.11-1.193.145-.07.007-.141.011-.213.016-.395.03-.792.05-1.191.05-.403 0-.806-.02-1.206-.05l-.207-.016a16.458 16.458 0 0 1-1.203-.149l-.054-.01c-.84-.14-1.669-.347-2.475-.617l-.075-.025c-.4-.137-.796-.287-1.185-.454l-.008-.004a16.606 16.606 0 0 1-1.085-.52c-.047-.023-.094-.046-.14-.071a16.354 16.354 0 0 1-1.234-.735 16.174 16.174 0 0 1-.851-.594l-.085-.066.061-.034 5.032-2.745a2.691 2.691 0 0 0 1.403-2.364v-2.292l-.147-.177c-.014-.016-1.39-1.69-1.91-3.955l-.057-.252-.217-.14a1.055 1.055 0 0 1-.49-.887v-2.256c0-.296.126-.571.355-.778l.21-.19v-3.544l-.006-.083c-.002-.016-.19-1.546.888-2.775.92-1.049 2.498-1.581 4.686-1.581 2.18 0 3.752.528 4.675 1.569 1.076 1.216.9 2.775.899 2.788l-.006 3.628.21.19c.229.206.355.482.355.778v2.256c0 .453-.309.865-.752 1.002l-.316.097-.102.315a11.773 11.773 0 0 1-1.588 3.202 7.815 7.815 0 0 1-.469.604l-.158.18v2.354c0 1.026.57 1.949 1.488 2.407l5.388 2.694c.035.017.068.035.102.053-.068.051-.138.099-.207.148z"/>
</svg>
